<svg width="1200" height="760" viewBox="0 0 1200 760" fill="none" xmlns="http://www.w3.org/2000/svg">
<rect width="1200" height="760" rx="42" fill="#E9F8EF"/>
<circle cx="984" cy="148" r="92" fill="#C9F7D8"/>
<circle cx="170" cy="612" r="118" fill="#DDF2FF"/>
<path d="M174 493C301 373 482 367 591 431C708 500 838 476 1009 326" stroke="#0E3B2E" stroke-width="16" stroke-linecap="round" opacity="0.18"/>
<rect x="124" y="132" width="408" height="450" rx="34" fill="#FFFFFF" stroke="#D5E7DB"/>
<rect x="170" y="190" width="246" height="24" rx="12" fill="#0E3B2E" opacity="0.92"/>
<rect x="170" y="238" width="302" height="16" rx="8" fill="#80E0A7"/>
<rect x="170" y="270" width="264" height="16" rx="8" fill="#D6EEE0"/>
<rect x="170" y="338" width="112" height="112" rx="24" fill="#C9F7D8"/>
<path d="M204 403C204 380 222 362 254 360C254 392 236 411 213 411C208 411 205 408 204 403Z" fill="#0E3B2E"/>
<path d="M209 407C224 394 234 383 253 364" stroke="#C9F7D8" stroke-width="4" stroke-linecap="round"/>
<rect x="308" y="338" width="164" height="22" rx="11" fill="#0E3B2E" opacity="0.86"/>
<rect x="308" y="376" width="134" height="14" rx="7" fill="#C1DCD0"/>
<rect x="308" y="402" width="154" height="14" rx="7" fill="#C1DCD0"/>
<rect x="308" y="428" width="96" height="14" rx="7" fill="#C1DCD0"/>
<rect x="638" y="164" width="418" height="282" rx="32" fill="#0E3B2E"/>
<path d="M698 354C763 293 824 279 876 309C929 340 982 324 1020 282" stroke="#80E0A7" stroke-width="12" stroke-linecap="round"/>
<circle cx="718" cy="252" r="38" fill="#F2C94C"/>
<rect x="688" y="198" width="206" height="18" rx="9" fill="white" opacity="0.94"/>
<rect x="688" y="226" width="164" height="13" rx="6.5" fill="white" opacity="0.45"/>
<rect x="638" y="482" width="188" height="104" rx="26" fill="#FFFFFF" stroke="#D5E7DB"/>
<rect x="856" y="482" width="188" height="104" rx="26" fill="#FFFFFF" stroke="#D5E7DB"/>
<rect x="680" y="523" width="104" height="14" rx="7" fill="#0E3B2E" opacity="0.86"/>
<rect x="900" y="523" width="104" height="14" rx="7" fill="#0E3B2E" opacity="0.86"/>
<circle cx="668" cy="533" r="14" fill="#80E0A7"/>
<circle cx="886" cy="533" r="14" fill="#F2C94C"/>
</svg>