<svg width="1100" height="620" viewBox="0 0 1100 620" fill="none" xmlns="http://www.w3.org/2000/svg">
<rect width="1100" height="620" rx="36" fill="#0E3B2E"/>
<circle cx="940" cy="130" r="86" fill="#80E0A7" opacity="0.34"/>
<circle cx="185" cy="516" r="126" fill="#DDF2FF" opacity="0.24"/>
<rect x="110" y="98" width="360" height="424" rx="30" fill="#FFFFFF"/>
<rect x="152" y="150" width="184" height="18" rx="9" fill="#0E3B2E"/>
<rect x="152" y="188" width="254" height="12" rx="6" fill="#C1DCD0"/>
<rect x="152" y="214" width="220" height="12" rx="6" fill="#C1DCD0"/>
<rect x="152" y="276" width="278" height="164" rx="24" fill="#E9F8EF"/>
<path d="M197 367C197 333 224 307 269 303C269 350 243 377 208 377C202 377 198 373 197 367Z" fill="#80E0A7"/>
<path d="M204 374C225 356 240 341 268 309" stroke="#0E3B2E" stroke-width="6" stroke-linecap="round"/>
<path d="M572 405L650 314L730 358L832 238L972 364" stroke="#80E0A7" stroke-width="18" stroke-linecap="round" stroke-linejoin="round"/>
<circle cx="650" cy="314" r="18" fill="#F2C94C"/>
<circle cx="832" cy="238" r="18" fill="#F2C94C"/>
<rect x="570" y="132" width="234" height="34" rx="17" fill="white" opacity="0.93"/>
<rect x="570" y="186" width="330" height="18" rx="9" fill="white" opacity="0.45"/>
<rect x="570" y="220" width="276" height="18" rx="9" fill="white" opacity="0.45"/>
</svg>